<?xml version="1.0" encoding="UTF-8"?>
<svg xmlns="http://www.w3.org/2000/svg" version="1.1" width="250" height="250" viewBox="0 0 250 250"><rect x="0" y="0" width="250" height="250" fill="#ffffff"/><g transform="scale(5.102)"><g transform="translate(0,0)"><path fill-rule="evenodd" d="M11 0L11 1L10 1L10 3L8 3L8 4L9 4L9 5L8 5L8 7L9 7L9 5L10 5L10 3L11 3L11 5L12 5L12 3L13 3L13 4L15 4L15 5L16 5L16 4L15 4L15 3L17 3L17 4L18 4L18 9L17 9L17 8L16 8L16 7L17 7L17 6L16 6L16 7L15 7L15 6L14 6L14 7L15 7L15 8L16 8L16 9L13 9L13 10L12 10L12 7L13 7L13 6L12 6L12 7L11 7L11 6L10 6L10 7L11 7L11 9L9 9L9 8L6 8L6 9L5 9L5 8L0 8L0 9L1 9L1 10L0 10L0 11L1 11L1 13L0 13L0 15L1 15L1 16L0 16L0 17L1 17L1 18L0 18L0 19L1 19L1 18L2 18L2 19L3 19L3 20L2 20L2 21L4 21L4 23L3 23L3 24L4 24L4 25L3 25L3 26L0 26L0 28L1 28L1 29L0 29L0 30L1 30L1 31L2 31L2 32L3 32L3 31L2 31L2 29L7 29L7 30L6 30L6 31L7 31L7 32L4 32L4 33L7 33L7 34L5 34L5 35L7 35L7 36L4 36L4 37L8 37L8 36L9 36L9 37L10 37L10 38L8 38L8 39L7 39L7 38L5 38L5 39L7 39L7 40L6 40L6 41L8 41L8 43L9 43L9 44L8 44L8 49L12 49L12 47L10 47L10 46L12 46L12 45L13 45L13 46L14 46L14 47L13 47L13 48L14 48L14 47L16 47L16 49L17 49L17 46L18 46L18 49L22 49L22 47L21 47L21 48L19 48L19 45L22 45L22 46L24 46L24 49L25 49L25 48L26 48L26 49L28 49L28 48L29 48L29 47L30 47L30 46L33 46L33 47L31 47L31 48L30 48L30 49L31 49L31 48L33 48L33 49L35 49L35 48L36 48L36 49L37 49L37 48L38 48L38 49L40 49L40 48L38 48L38 47L40 47L40 46L41 46L41 47L42 47L42 48L45 48L45 47L44 47L44 46L46 46L46 47L47 47L47 44L48 44L48 45L49 45L49 44L48 44L48 43L49 43L49 42L48 42L48 40L49 40L49 37L48 37L48 38L47 38L47 36L46 36L46 34L45 34L45 36L44 36L44 33L45 33L45 32L46 32L46 33L47 33L47 34L48 34L48 36L49 36L49 34L48 34L48 31L49 31L49 26L48 26L48 25L49 25L49 20L48 20L48 22L47 22L47 21L46 21L46 20L45 20L45 19L47 19L47 18L48 18L48 19L49 19L49 18L48 18L48 17L49 17L49 10L48 10L48 8L47 8L47 9L46 9L46 8L45 8L45 9L46 9L46 10L45 10L45 11L44 11L44 12L43 12L43 11L42 11L42 10L44 10L44 8L43 8L43 9L42 9L42 8L40 8L40 9L39 9L39 10L38 10L38 8L39 8L39 5L38 5L38 4L37 4L37 3L36 3L36 2L39 2L39 4L40 4L40 3L41 3L41 0L40 0L40 1L36 1L36 2L35 2L35 1L34 1L34 0L33 0L33 1L32 1L32 2L31 2L31 3L34 3L34 2L35 2L35 3L36 3L36 4L35 4L35 5L33 5L33 6L32 6L32 5L31 5L31 4L30 4L30 3L29 3L29 2L30 2L30 1L31 1L31 0L30 0L30 1L29 1L29 0L28 0L28 1L29 1L29 2L28 2L28 3L26 3L26 4L25 4L25 3L24 3L24 2L23 2L23 1L22 1L22 0L21 0L21 1L22 1L22 2L20 2L20 1L19 1L19 3L22 3L22 4L21 4L21 5L19 5L19 4L18 4L18 3L17 3L17 2L18 2L18 0L17 0L17 1L16 1L16 0ZM25 0L25 1L26 1L26 2L27 2L27 1L26 1L26 0ZM8 1L8 2L9 2L9 1ZM11 1L11 3L12 3L12 1ZM33 1L33 2L34 2L34 1ZM13 2L13 3L14 3L14 2ZM22 2L22 3L23 3L23 4L24 4L24 3L23 3L23 2ZM28 3L28 4L27 4L27 8L28 8L28 9L29 9L29 10L27 10L27 9L25 9L25 10L27 10L27 11L26 11L26 12L25 12L25 11L24 11L24 12L23 12L23 9L22 9L22 6L21 6L21 9L20 9L20 6L19 6L19 9L18 9L18 10L17 10L17 9L16 9L16 10L13 10L13 11L14 11L14 12L12 12L12 11L11 11L11 10L9 10L9 9L6 9L6 10L5 10L5 9L3 9L3 10L1 10L1 11L3 11L3 10L5 10L5 11L4 11L4 12L5 12L5 13L3 13L3 12L2 12L2 13L1 13L1 14L2 14L2 13L3 13L3 15L2 15L2 16L4 16L4 19L6 19L6 20L5 20L5 22L9 22L9 24L10 24L10 25L13 25L13 27L12 27L12 26L10 26L10 27L12 27L12 28L10 28L10 31L9 31L9 30L8 30L8 31L9 31L9 32L8 32L8 34L9 34L9 35L10 35L10 36L11 36L11 35L13 35L13 36L14 36L14 35L13 35L13 33L16 33L16 34L15 34L15 35L16 35L16 36L15 36L15 37L13 37L13 40L12 40L12 39L11 39L11 38L12 38L12 37L11 37L11 38L10 38L10 40L12 40L12 41L10 41L10 42L11 42L11 43L10 43L10 44L9 44L9 45L12 45L12 43L14 43L14 44L13 44L13 45L14 45L14 46L16 46L16 45L18 45L18 44L17 44L17 43L18 43L18 42L19 42L19 44L20 44L20 42L21 42L21 41L18 41L18 37L19 37L19 38L20 38L20 40L22 40L22 39L21 39L21 37L22 37L22 38L23 38L23 37L26 37L26 38L25 38L25 39L27 39L27 36L25 36L25 35L29 35L29 36L28 36L28 37L29 37L29 38L28 38L28 39L29 39L29 38L30 38L30 39L31 39L31 40L27 40L27 41L28 41L28 42L30 42L30 43L29 43L29 44L28 44L28 43L27 43L27 44L28 44L28 45L29 45L29 46L28 46L28 47L27 47L27 46L26 46L26 45L24 45L24 46L25 46L25 47L26 47L26 48L28 48L28 47L29 47L29 46L30 46L30 43L31 43L31 44L32 44L32 45L33 45L33 46L35 46L35 45L34 45L34 44L37 44L37 46L36 46L36 48L37 48L37 47L38 47L38 46L40 46L40 43L37 43L37 42L40 42L40 41L39 41L39 40L40 40L40 39L41 39L41 40L45 40L45 41L46 41L46 40L48 40L48 39L46 39L46 38L45 38L45 37L46 37L46 36L45 36L45 37L42 37L42 38L45 38L45 39L41 39L41 38L40 38L40 37L39 37L39 36L40 36L40 35L42 35L42 36L43 36L43 35L42 35L42 34L43 34L43 33L44 33L44 30L45 30L45 31L46 31L46 32L47 32L47 31L46 31L46 30L47 30L47 28L48 28L48 26L45 26L45 27L42 27L42 28L46 28L46 30L45 30L45 29L43 29L43 31L42 31L42 30L41 30L41 29L38 29L38 28L41 28L41 27L40 27L40 26L39 26L39 25L40 25L40 23L39 23L39 24L38 24L38 23L36 23L36 24L35 24L35 23L34 23L34 22L35 22L35 21L36 21L36 20L37 20L37 22L39 22L39 21L40 21L40 22L42 22L42 21L43 21L43 20L44 20L44 22L45 22L45 20L44 20L44 19L45 19L45 17L46 17L46 16L47 16L47 14L48 14L48 10L47 10L47 11L46 11L46 12L44 12L44 13L43 13L43 12L42 12L42 11L39 11L39 12L38 12L38 13L37 13L37 14L39 14L39 15L36 15L36 16L35 16L35 15L34 15L34 14L36 14L36 12L37 12L37 11L38 11L38 10L37 10L37 9L36 9L36 8L38 8L38 5L36 5L36 6L35 6L35 7L34 7L34 6L33 6L33 7L34 7L34 8L28 8L28 5L29 5L29 3ZM23 5L23 8L26 8L26 5ZM24 6L24 7L25 7L25 6ZM29 6L29 7L30 7L30 6ZM31 6L31 7L32 7L32 6ZM36 6L36 7L35 7L35 8L34 8L34 9L32 9L32 10L31 10L31 9L30 9L30 10L29 10L29 11L27 11L27 13L28 13L28 14L30 14L30 15L27 15L27 14L25 14L25 12L24 12L24 13L23 13L23 12L22 12L22 9L21 9L21 10L20 10L20 11L21 11L21 12L19 12L19 10L18 10L18 11L17 11L17 12L18 12L18 13L16 13L16 12L15 12L15 13L16 13L16 14L14 14L14 13L12 13L12 12L10 12L10 11L9 11L9 12L10 12L10 13L9 13L9 15L12 15L12 16L10 16L10 17L9 17L9 16L8 16L8 18L6 18L6 19L8 19L8 21L9 21L9 22L10 22L10 23L11 23L11 24L12 24L12 23L13 23L13 25L14 25L14 24L16 24L16 25L15 25L15 29L16 29L16 30L14 30L14 29L13 29L13 28L14 28L14 27L13 27L13 28L12 28L12 29L11 29L11 31L10 31L10 32L11 32L11 34L12 34L12 33L13 33L13 32L11 32L11 31L12 31L12 29L13 29L13 31L16 31L16 33L17 33L17 34L16 34L16 35L18 35L18 33L21 33L21 34L20 34L20 35L21 35L21 36L19 36L19 37L21 37L21 36L22 36L22 37L23 37L23 35L21 35L21 34L22 34L22 32L23 32L23 33L24 33L24 34L26 34L26 33L24 33L24 32L29 32L29 34L31 34L31 35L30 35L30 36L34 36L34 37L32 37L32 38L34 38L34 39L32 39L32 40L31 40L31 41L30 41L30 42L31 42L31 43L32 43L32 44L33 44L33 43L35 43L35 42L33 42L33 41L35 41L35 40L36 40L36 42L37 42L37 41L38 41L38 40L39 40L39 39L40 39L40 38L36 38L36 39L35 39L35 38L34 38L34 37L35 37L35 36L36 36L36 37L38 37L38 35L40 35L40 34L41 34L41 33L43 33L43 32L42 32L42 31L40 31L40 30L38 30L38 29L37 29L37 28L35 28L35 26L32 26L32 24L33 24L33 25L34 25L34 24L33 24L33 23L32 23L32 24L31 24L31 23L30 23L30 22L32 22L32 20L36 20L36 19L37 19L37 20L38 20L38 19L39 19L39 20L40 20L40 21L41 21L41 20L40 20L40 18L36 18L36 19L35 19L35 18L33 18L33 19L32 19L32 18L31 18L31 17L30 17L30 18L29 18L29 17L28 17L28 18L26 18L26 19L25 19L25 16L26 16L26 17L27 17L27 16L33 16L33 15L32 15L32 12L33 12L33 14L34 14L34 13L35 13L35 12L34 12L34 11L35 11L35 10L34 10L34 9L35 9L35 8L36 8L36 7L37 7L37 6ZM40 6L40 7L41 7L41 6ZM40 9L40 10L42 10L42 9ZM6 10L6 11L5 11L5 12L6 12L6 13L5 13L5 15L8 15L8 13L7 13L7 12L6 12L6 11L8 11L8 10ZM30 10L30 11L31 11L31 12L28 12L28 13L31 13L31 12L32 12L32 11L34 11L34 10L32 10L32 11L31 11L31 10ZM36 10L36 11L37 11L37 10ZM21 12L21 13L19 13L19 14L17 14L17 17L16 17L16 15L14 15L14 14L13 14L13 15L14 15L14 16L13 16L13 17L12 17L12 18L13 18L13 17L16 17L16 18L15 18L15 19L16 19L16 20L15 20L15 21L13 21L13 20L14 20L14 19L11 19L11 20L10 20L10 18L11 18L11 17L10 17L10 18L9 18L9 20L10 20L10 22L11 22L11 23L12 23L12 22L13 22L13 23L14 23L14 22L15 22L15 23L16 23L16 24L17 24L17 25L16 25L16 26L17 26L17 27L18 27L18 26L19 26L19 28L21 28L21 29L19 29L19 31L18 31L18 30L17 30L17 33L18 33L18 32L19 32L19 31L20 31L20 32L21 32L21 31L20 31L20 30L21 30L21 29L25 29L25 31L28 31L28 30L30 30L30 31L29 31L29 32L31 32L31 34L32 34L32 35L34 35L34 36L35 36L35 35L34 35L34 34L39 34L39 33L38 33L38 32L40 32L40 31L38 31L38 30L37 30L37 31L36 31L36 30L35 30L35 28L31 28L31 27L32 27L32 26L30 26L30 25L29 25L29 24L28 24L28 23L29 23L29 22L30 22L30 21L31 21L31 20L32 20L32 19L31 19L31 18L30 18L30 19L31 19L31 20L28 20L28 19L29 19L29 18L28 18L28 19L26 19L26 20L28 20L28 23L27 23L27 24L28 24L28 26L27 26L27 28L26 28L26 27L25 27L25 28L24 28L24 27L23 27L23 28L22 28L22 26L21 26L21 25L18 25L18 24L17 24L17 22L18 22L18 23L19 23L19 24L20 24L20 23L21 23L21 24L22 24L22 23L21 23L21 21L22 21L22 22L23 22L23 21L24 21L24 22L25 22L25 21L24 21L24 20L25 20L25 19L24 19L24 20L23 20L23 18L21 18L21 17L22 17L22 16L25 16L25 15L22 15L22 14L23 14L23 13L22 13L22 12ZM39 12L39 13L41 13L41 14L40 14L40 15L41 15L41 16L39 16L39 17L41 17L41 18L43 18L43 17L42 17L42 16L46 16L46 15L41 15L41 14L43 14L43 13L42 13L42 12ZM46 12L46 13L44 13L44 14L47 14L47 12ZM6 13L6 14L7 14L7 13ZM10 13L10 14L11 14L11 13ZM21 13L21 14L19 14L19 15L18 15L18 17L21 17L21 16L22 16L22 15L21 15L21 14L22 14L22 13ZM19 15L19 16L21 16L21 15ZM26 15L26 16L27 16L27 15ZM5 16L5 17L7 17L7 16ZM36 16L36 17L38 17L38 16ZM16 18L16 19L18 19L18 18ZM20 18L20 19L21 19L21 20L20 20L20 21L18 21L18 20L17 20L17 21L18 21L18 22L19 22L19 23L20 23L20 21L21 21L21 20L22 20L22 21L23 21L23 20L22 20L22 19L21 19L21 18ZM42 19L42 20L43 20L43 19ZM0 20L0 21L1 21L1 20ZM6 20L6 21L7 21L7 20ZM15 21L15 22L16 22L16 21ZM26 21L26 22L27 22L27 21ZM33 21L33 22L34 22L34 21ZM1 22L1 25L2 25L2 22ZM46 22L46 24L45 24L45 25L46 25L46 24L47 24L47 25L48 25L48 23L47 23L47 22ZM5 23L5 26L8 26L8 23ZM23 23L23 26L26 26L26 23ZM41 23L41 26L44 26L44 23ZM6 24L6 25L7 25L7 24ZM24 24L24 25L25 25L25 24ZM36 24L36 27L37 27L37 26L38 26L38 27L39 27L39 26L38 26L38 25L37 25L37 24ZM42 24L42 25L43 25L43 24ZM17 25L17 26L18 26L18 25ZM29 26L29 27L28 27L28 28L27 28L27 29L28 29L28 28L29 28L29 27L30 27L30 26ZM3 27L3 28L4 28L4 27ZM5 27L5 28L7 28L7 29L9 29L9 27ZM16 28L16 29L18 29L18 28ZM30 29L30 30L34 30L34 31L31 31L31 32L33 32L33 33L32 33L32 34L34 34L34 33L35 33L35 32L36 32L36 33L37 33L37 32L36 32L36 31L35 31L35 30L34 30L34 29ZM34 31L34 32L35 32L35 31ZM0 33L0 36L1 36L1 33ZM2 33L2 35L3 35L3 33ZM9 33L9 34L10 34L10 33ZM27 33L27 34L28 34L28 33ZM36 35L36 36L37 36L37 35ZM17 36L17 37L18 37L18 36ZM0 37L0 38L1 38L1 40L0 40L0 41L3 41L3 40L4 40L4 39L2 39L2 38L3 38L3 37L2 37L2 38L1 38L1 37ZM15 37L15 38L14 38L14 40L16 40L16 41L12 41L12 42L15 42L15 45L16 45L16 43L17 43L17 42L16 42L16 41L17 41L17 40L16 40L16 39L15 39L15 38L16 38L16 37ZM30 37L30 38L31 38L31 37ZM8 39L8 41L9 41L9 39ZM34 39L34 40L35 40L35 39ZM36 39L36 40L38 40L38 39ZM45 39L45 40L46 40L46 39ZM32 40L32 41L31 41L31 42L32 42L32 43L33 43L33 42L32 42L32 41L33 41L33 40ZM23 41L23 44L26 44L26 41ZM41 41L41 44L44 44L44 41ZM24 42L24 43L25 43L25 42ZM42 42L42 43L43 43L43 42ZM47 42L47 43L46 43L46 44L45 44L45 45L46 45L46 44L47 44L47 43L48 43L48 42ZM41 45L41 46L42 46L42 45ZM43 45L43 46L44 46L44 45ZM33 47L33 48L35 48L35 47ZM48 47L48 48L47 48L47 49L49 49L49 47ZM0 0L0 7L7 7L7 0ZM1 1L1 6L6 6L6 1ZM2 2L2 5L5 5L5 2ZM42 0L42 7L49 7L49 0ZM43 1L43 6L48 6L48 1ZM44 2L44 5L47 5L47 2ZM0 42L0 49L7 49L7 42ZM1 43L1 48L6 48L6 43ZM2 44L2 47L5 47L5 44Z" fill="#000000"/></g></g></svg>
