<?xml version="1.0" encoding="UTF-8"?>
<svg xmlns="http://www.w3.org/2000/svg" version="1.1" width="250" height="250" viewBox="0 0 250 250"><rect x="0" y="0" width="250" height="250" fill="#ffffff"/><g transform="scale(5.102)"><g transform="translate(0,0)"><path fill-rule="evenodd" d="M11 0L11 1L8 1L8 2L11 2L11 4L10 4L10 3L8 3L8 4L9 4L9 5L8 5L8 7L9 7L9 6L10 6L10 8L6 8L6 9L5 9L5 8L0 8L0 9L1 9L1 10L0 10L0 13L1 13L1 14L0 14L0 16L1 16L1 14L2 14L2 13L3 13L3 12L2 12L2 11L4 11L4 10L6 10L6 11L7 11L7 12L4 12L4 14L3 14L3 15L2 15L2 16L5 16L5 13L7 13L7 14L6 14L6 15L7 15L7 16L6 16L6 17L9 17L9 18L10 18L10 19L11 19L11 18L10 18L10 17L12 17L12 15L11 15L11 14L14 14L14 15L13 15L13 16L14 16L14 15L16 15L16 17L13 17L13 19L12 19L12 21L15 21L15 22L14 22L14 23L11 23L11 22L10 22L10 21L9 21L9 20L8 20L8 18L6 18L6 19L3 19L3 18L4 18L4 17L3 17L3 18L2 18L2 17L1 17L1 18L0 18L0 24L1 24L1 25L3 25L3 26L0 26L0 30L1 30L1 29L2 29L2 28L1 28L1 27L3 27L3 26L4 26L4 27L5 27L5 29L4 29L4 28L3 28L3 29L4 29L4 30L2 30L2 31L3 31L3 32L2 32L2 33L1 33L1 34L0 34L0 36L1 36L1 37L0 37L0 38L1 38L1 40L0 40L0 41L3 41L3 40L4 40L4 39L2 39L2 38L1 38L1 37L2 37L2 35L3 35L3 38L4 38L4 35L5 35L5 34L6 34L6 35L8 35L8 36L9 36L9 37L10 37L10 38L9 38L9 39L8 39L8 37L7 37L7 36L6 36L6 37L7 37L7 38L5 38L5 39L7 39L7 40L6 40L6 41L8 41L8 43L11 43L11 41L12 41L12 42L15 42L15 45L16 45L16 46L14 46L14 45L13 45L13 44L14 44L14 43L12 43L12 45L11 45L11 44L8 44L8 49L9 49L9 47L10 47L10 48L11 48L11 49L12 49L12 47L10 47L10 46L12 46L12 45L13 45L13 46L14 46L14 47L13 47L13 48L14 48L14 47L16 47L16 49L17 49L17 46L18 46L18 49L22 49L22 47L21 47L21 48L20 48L20 46L19 46L19 45L22 45L22 46L24 46L24 49L25 49L25 48L26 48L26 49L28 49L28 48L35 48L35 49L39 49L39 48L41 48L41 47L42 47L42 48L43 48L43 49L44 49L44 48L45 48L45 47L44 47L44 46L46 46L46 47L47 47L47 44L48 44L48 45L49 45L49 44L48 44L48 43L49 43L49 42L48 42L48 40L49 40L49 37L48 37L48 38L47 38L47 36L46 36L46 34L44 34L44 35L43 35L43 33L45 33L45 32L46 32L46 33L47 33L47 34L48 34L48 36L49 36L49 34L48 34L48 31L49 31L49 26L48 26L48 25L49 25L49 20L48 20L48 22L47 22L47 21L46 21L46 20L45 20L45 19L47 19L47 18L48 18L48 19L49 19L49 18L48 18L48 17L49 17L49 10L48 10L48 8L47 8L47 9L46 9L46 8L45 8L45 9L44 9L44 8L43 8L43 9L42 9L42 8L38 8L38 7L39 7L39 5L38 5L38 4L37 4L37 3L35 3L35 5L34 5L34 4L32 4L32 5L34 5L34 7L35 7L35 8L36 8L36 10L34 10L34 9L33 9L33 10L34 10L34 11L37 11L37 12L36 12L36 13L35 13L35 14L33 14L33 13L32 13L32 12L33 12L33 11L32 11L32 12L31 12L31 11L30 11L30 10L31 10L31 9L32 9L32 8L33 8L33 6L32 6L32 8L31 8L31 4L30 4L30 3L29 3L29 2L28 2L28 0L27 0L27 1L26 1L26 0L25 0L25 1L26 1L26 2L28 2L28 3L26 3L26 4L25 4L25 3L24 3L24 2L23 2L23 1L22 1L22 0L21 0L21 1L22 1L22 2L23 2L23 3L24 3L24 4L21 4L21 5L19 5L19 4L18 4L18 3L17 3L17 2L18 2L18 0L17 0L17 1L16 1L16 0L13 0L13 1L12 1L12 0ZM29 0L29 1L34 1L34 2L35 2L35 1L34 1L34 0ZM36 0L36 2L39 2L39 4L40 4L40 3L41 3L41 0L40 0L40 1L37 1L37 0ZM11 1L11 2L12 2L12 3L14 3L14 2L12 2L12 1ZM19 1L19 3L21 3L21 2L20 2L20 1ZM31 2L31 3L33 3L33 2ZM15 3L15 4L11 4L11 5L13 5L13 7L12 7L12 6L11 6L11 8L10 8L10 9L9 9L9 10L10 10L10 12L8 12L8 14L7 14L7 15L8 15L8 16L10 16L10 14L11 14L11 13L10 13L10 12L13 12L13 13L14 13L14 14L16 14L16 13L18 13L18 12L17 12L17 11L18 11L18 10L19 10L19 12L21 12L21 13L19 13L19 14L17 14L17 17L16 17L16 18L15 18L15 19L16 19L16 20L15 20L15 21L16 21L16 22L15 22L15 23L16 23L16 24L14 24L14 25L13 25L13 27L11 27L11 25L12 25L12 24L11 24L11 25L9 25L9 27L6 27L6 28L7 28L7 29L6 29L6 30L7 30L7 29L8 29L8 30L12 30L12 29L9 29L9 27L10 27L10 28L13 28L13 29L14 29L14 30L16 30L16 29L18 29L18 28L16 28L16 29L15 29L15 25L16 25L16 26L17 26L17 27L18 27L18 26L19 26L19 28L21 28L21 29L19 29L19 30L20 30L20 32L21 32L21 29L25 29L25 30L23 30L23 31L27 31L27 32L24 32L24 33L23 33L23 34L21 34L21 33L18 33L18 32L19 32L19 31L18 31L18 30L17 30L17 33L16 33L16 31L12 31L12 32L13 32L13 33L16 33L16 34L15 34L15 35L16 35L16 36L15 36L15 37L13 37L13 40L12 40L12 39L11 39L11 38L12 38L12 37L11 37L11 38L10 38L10 39L9 39L9 40L8 40L8 41L9 41L9 42L10 42L10 41L11 41L11 40L12 40L12 41L16 41L16 42L17 42L17 43L16 43L16 45L18 45L18 44L17 44L17 43L18 43L18 42L19 42L19 44L20 44L20 42L21 42L21 43L22 43L22 42L21 42L21 41L22 41L22 40L21 40L21 37L22 37L22 38L23 38L23 37L26 37L26 38L25 38L25 39L27 39L27 40L28 40L28 42L27 42L27 44L28 44L28 45L29 45L29 46L28 46L28 47L27 47L27 45L26 45L26 48L28 48L28 47L29 47L29 46L30 46L30 47L34 47L34 46L35 46L35 44L38 44L38 45L37 45L37 46L36 46L36 47L35 47L35 48L39 48L39 47L38 47L38 46L40 46L40 47L41 47L41 46L42 46L42 47L43 47L43 46L44 46L44 45L43 45L43 46L42 46L42 45L41 45L41 46L40 46L40 43L36 43L36 42L40 42L40 41L38 41L38 40L45 40L45 41L46 41L46 40L48 40L48 39L46 39L46 38L45 38L45 37L46 37L46 36L45 36L45 35L44 35L44 36L45 36L45 37L43 37L43 35L41 35L41 34L42 34L42 33L43 33L43 32L44 32L44 30L45 30L45 31L46 31L46 32L47 32L47 31L46 31L46 30L47 30L47 28L48 28L48 26L45 26L45 27L44 27L44 28L46 28L46 30L45 30L45 29L43 29L43 31L42 31L42 30L40 30L40 31L39 31L39 32L38 32L38 31L36 31L36 30L39 30L39 29L36 29L36 28L41 28L41 27L40 27L40 26L39 26L39 25L40 25L40 23L38 23L38 25L37 25L37 26L39 26L39 27L36 27L36 28L35 28L35 27L33 27L33 26L35 26L35 25L33 25L33 24L32 24L32 23L33 23L33 22L35 22L35 20L37 20L37 21L36 21L36 22L42 22L42 21L43 21L43 20L44 20L44 21L45 21L45 20L44 20L44 19L45 19L45 18L41 18L41 17L42 17L42 16L41 16L41 15L43 15L43 16L44 16L44 17L46 17L46 16L47 16L47 14L48 14L48 10L47 10L47 11L46 11L46 12L44 12L44 11L45 11L45 10L46 10L46 9L45 9L45 10L44 10L44 9L43 9L43 10L42 10L42 9L38 9L38 8L37 8L37 7L38 7L38 5L36 5L36 6L35 6L35 7L36 7L36 8L37 8L37 10L39 10L39 11L41 11L41 10L42 10L42 11L43 11L43 12L44 12L44 13L43 13L43 14L41 14L41 13L40 13L40 12L38 12L38 13L37 13L37 14L39 14L39 15L36 15L36 16L35 16L35 15L34 15L34 16L30 16L30 14L28 14L28 13L31 13L31 12L28 12L28 13L26 13L26 12L27 12L27 11L24 11L24 10L28 10L28 11L29 11L29 10L30 10L30 9L31 9L31 8L28 8L28 5L29 5L29 3L28 3L28 4L27 4L27 8L28 8L28 9L24 9L24 10L23 10L23 9L22 9L22 6L21 6L21 9L20 9L20 6L19 6L19 9L18 9L18 4L17 4L17 3ZM15 4L15 5L16 5L16 4ZM23 5L23 8L26 8L26 5ZM14 6L14 7L15 7L15 8L16 8L16 9L13 9L13 10L16 10L16 9L17 9L17 10L18 10L18 9L17 9L17 8L16 8L16 7L17 7L17 6L16 6L16 7L15 7L15 6ZM24 6L24 7L25 7L25 6ZM29 6L29 7L30 7L30 6ZM36 6L36 7L37 7L37 6ZM40 6L40 7L41 7L41 6ZM3 9L3 10L4 10L4 9ZM6 9L6 10L7 10L7 11L8 11L8 10L7 10L7 9ZM10 9L10 10L11 10L11 9ZM21 9L21 10L20 10L20 11L21 11L21 12L22 12L22 13L21 13L21 14L20 14L20 15L18 15L18 17L21 17L21 18L20 18L20 19L21 19L21 20L19 20L19 21L18 21L18 20L17 20L17 21L18 21L18 22L17 22L17 24L16 24L16 25L17 25L17 26L18 26L18 25L21 25L21 26L22 26L22 28L23 28L23 27L24 27L24 28L27 28L27 29L28 29L28 28L29 28L29 27L28 27L28 24L29 24L29 23L30 23L30 24L31 24L31 25L29 25L29 26L31 26L31 28L33 28L33 29L32 29L32 30L31 30L31 29L30 29L30 30L28 30L28 32L27 32L27 33L28 33L28 34L27 34L27 35L25 35L25 36L27 36L27 39L28 39L28 40L29 40L29 41L30 41L30 42L29 42L29 43L28 43L28 44L29 44L29 43L30 43L30 46L32 46L32 44L35 44L35 42L34 42L34 41L37 41L37 40L38 40L38 39L45 39L45 40L46 40L46 39L45 39L45 38L43 38L43 37L42 37L42 38L41 38L41 37L40 37L40 36L41 36L41 35L40 35L40 33L41 33L41 32L42 32L42 31L40 31L40 32L39 32L39 34L37 34L37 33L38 33L38 32L34 32L34 31L35 31L35 30L36 30L36 29L35 29L35 28L33 28L33 27L32 27L32 26L31 26L31 25L32 25L32 24L31 24L31 23L30 23L30 22L32 22L32 21L30 21L30 22L29 22L29 23L28 23L28 20L34 20L34 19L35 19L35 18L33 18L33 19L28 19L28 20L27 20L27 22L24 22L24 21L25 21L25 20L26 20L26 19L27 19L27 18L26 18L26 19L25 19L25 16L26 16L26 17L28 17L28 16L29 16L29 18L32 18L32 17L30 17L30 16L29 16L29 15L28 15L28 16L26 16L26 15L27 15L27 14L25 14L25 12L24 12L24 11L23 11L23 12L22 12L22 9ZM13 11L13 12L14 12L14 11ZM15 12L15 13L16 13L16 12ZM23 12L23 13L22 13L22 14L21 14L21 15L20 15L20 16L25 16L25 15L22 15L22 14L23 14L23 13L24 13L24 12ZM46 12L46 13L44 13L44 14L47 14L47 12ZM39 13L39 14L40 14L40 13ZM8 14L8 15L9 15L9 14ZM32 14L32 15L33 15L33 14ZM39 15L39 16L38 16L38 17L39 17L39 18L36 18L36 19L37 19L37 20L38 20L38 19L39 19L39 21L41 21L41 20L40 20L40 17L41 17L41 16L40 16L40 15ZM44 15L44 16L46 16L46 15ZM34 16L34 17L35 17L35 16ZM36 16L36 17L37 17L37 16ZM39 16L39 17L40 17L40 16ZM23 17L23 18L21 18L21 19L22 19L22 20L21 20L21 21L19 21L19 22L18 22L18 23L19 23L19 24L22 24L22 22L23 22L23 21L24 21L24 20L25 20L25 19L24 19L24 20L23 20L23 18L24 18L24 17ZM16 18L16 19L18 19L18 18ZM6 19L6 20L7 20L7 19ZM13 19L13 20L14 20L14 19ZM42 19L42 20L43 20L43 19ZM1 20L1 21L4 21L4 20ZM22 20L22 21L21 21L21 22L22 22L22 21L23 21L23 20ZM5 21L5 22L8 22L8 21ZM3 22L3 23L1 23L1 24L3 24L3 25L4 25L4 24L3 24L3 23L4 23L4 22ZM19 22L19 23L20 23L20 22ZM46 22L46 24L45 24L45 25L46 25L46 24L47 24L47 25L48 25L48 23L47 23L47 22ZM5 23L5 26L8 26L8 23ZM9 23L9 24L10 24L10 23ZM23 23L23 26L26 26L26 23ZM27 23L27 24L28 24L28 23ZM34 23L34 24L37 24L37 23ZM41 23L41 26L44 26L44 23ZM6 24L6 25L7 25L7 24ZM17 24L17 25L18 25L18 24ZM24 24L24 25L25 25L25 24ZM42 24L42 25L43 25L43 24ZM13 27L13 28L14 28L14 27ZM27 27L27 28L28 28L28 27ZM42 27L42 28L43 28L43 27ZM33 29L33 30L32 30L32 31L33 31L33 30L35 30L35 29ZM4 30L4 32L7 32L7 33L6 33L6 34L7 34L7 33L8 33L8 34L9 34L9 35L10 35L10 34L11 34L11 35L12 35L12 36L14 36L14 35L12 35L12 34L11 34L11 33L10 33L10 34L9 34L9 33L8 33L8 31L5 31L5 30ZM30 30L30 31L31 31L31 30ZM0 31L0 32L1 32L1 31ZM10 31L10 32L11 32L11 31ZM28 32L28 33L29 33L29 34L28 34L28 35L29 35L29 36L28 36L28 37L29 37L29 38L28 38L28 39L29 39L29 40L30 40L30 39L31 39L31 40L32 40L32 42L30 42L30 43L31 43L31 44L32 44L32 42L33 42L33 43L34 43L34 42L33 42L33 41L34 41L34 40L37 40L37 39L36 39L36 38L39 38L39 37L36 37L36 36L40 36L40 35L36 35L36 34L35 34L35 33L34 33L34 32L31 32L31 34L30 34L30 32ZM4 33L4 34L5 34L5 33ZM17 33L17 34L16 34L16 35L18 35L18 33ZM24 33L24 34L25 34L25 33ZM32 33L32 34L31 34L31 35L30 35L30 34L29 34L29 35L30 35L30 36L33 36L33 37L32 37L32 38L31 38L31 37L30 37L30 38L29 38L29 39L30 39L30 38L31 38L31 39L32 39L32 40L33 40L33 39L32 39L32 38L34 38L34 39L35 39L35 38L34 38L34 37L35 37L35 36L36 36L36 35L35 35L35 34L34 34L34 33ZM1 34L1 35L2 35L2 34ZM20 34L20 35L21 35L21 36L20 36L20 37L18 37L18 36L17 36L17 37L18 37L18 41L21 41L21 40L19 40L19 39L20 39L20 37L21 37L21 36L22 36L22 37L23 37L23 35L21 35L21 34ZM32 34L32 35L33 35L33 36L35 36L35 35L34 35L34 34ZM15 37L15 38L14 38L14 40L16 40L16 41L17 41L17 40L16 40L16 39L15 39L15 38L16 38L16 37ZM10 39L10 40L11 40L11 39ZM23 39L23 40L24 40L24 39ZM23 41L23 44L26 44L26 41ZM41 41L41 44L44 44L44 41ZM24 42L24 43L25 43L25 42ZM42 42L42 43L43 43L43 42ZM47 42L47 43L46 43L46 44L45 44L45 45L46 45L46 44L47 44L47 43L48 43L48 42ZM9 45L9 46L10 46L10 45ZM24 45L24 46L25 46L25 45ZM33 45L33 46L34 46L34 45ZM48 47L48 48L47 48L47 49L49 49L49 47ZM0 0L0 7L7 7L7 0ZM1 1L1 6L6 6L6 1ZM2 2L2 5L5 5L5 2ZM42 0L42 7L49 7L49 0ZM43 1L43 6L48 6L48 1ZM44 2L44 5L47 5L47 2ZM0 42L0 49L7 49L7 42ZM1 43L1 48L6 48L6 43ZM2 44L2 47L5 47L5 44Z" fill="#000000"/></g></g></svg>
